<?xml version="1.0" encoding="utf-8"?>
<!-- Generator: Adobe Illustrator 22.1.0, SVG Export Plug-In . SVG Version: 6.00 Build 0)  -->
<svg version="1.1" id="Layer_1" xmlns="http://www.w3.org/2000/svg" xmlns:xlink="http://www.w3.org/1999/xlink" x="0px" y="0px"
	 viewBox="0 0 128 128" style="enable-background:new 0 0 128 128;" xml:space="preserve">
<style type="text/css">
	.st0{fill:#1AB394;}
	.st1{fill:#18A588;}
	.st2{fill:#FFFFFF;}
</style>
<g>
	<rect class="st0" width="128" height="128"/>
	<polygon class="st1" points="91.8,82.7 86.5,88.5 84.5,85.4 82.3,83.3 82.5,80.3 87.2,75.5 81.7,71.7 75.9,77.4 29.2,34.3 0,63.5 
		0,128 73.5,128 104.4,96.9 	"/>
	<g>
		<path class="st2" d="M77.3,96.2c0-0.9-0.3-1.6-1-2.2c-0.6-0.6-1.5-0.9-2.5-0.9c-1,0-1.8,0.3-2.5,0.9c-0.7,0.6-1,1.3-1,2.2
			c0,0.9,0.3,1.6,1,2.2s1.5,0.9,2.4,0.9c1.1,0,1.9-0.3,2.6-0.9C76.9,97.9,77.3,97.1,77.3,96.2z"/>
		<path class="st2" d="M81.5,99c0,2.9-0.9,4.4-2.8,4.4c-0.6,0-1.4-0.2-2.2-0.7v4.6c1,0.4,2,0.6,2.8,0.6c2.6,0,4.6-0.8,6-2.5
			c1.4-1.7,2.1-4,2.1-6.8V79.7h-5.9V99z"/>
		<path class="st2" d="M86.9,71.4c-0.6-0.6-1.5-0.8-2.5-0.8c-1,0-1.8,0.3-2.5,0.8c-0.6,0.6-1,1.3-1,2.2c0,0.9,0.3,1.6,1,2.2
			c0.6,0.6,1.5,0.9,2.5,0.9c1,0,1.8-0.3,2.5-0.9c0.6-0.6,0.9-1.3,0.9-2.2C87.9,72.7,87.6,71.9,86.9,71.4z"/>
		<path class="st2" d="M105.5,90.9c-0.2-0.6-0.6-1.1-1.1-1.5c-0.5-0.4-1-0.8-1.6-1.1c-0.6-0.3-1.3-0.6-2.1-0.9
			c-0.4-0.2-0.9-0.3-1.3-0.4c-0.4-0.1-0.8-0.3-1.2-0.5c-0.4-0.2-0.7-0.4-0.9-0.6c-0.2-0.3-0.3-0.6-0.3-0.9c0-0.3,0.1-0.5,0.2-0.7
			s0.4-0.4,0.6-0.5c0.3-0.1,0.6-0.2,0.9-0.3s0.7-0.1,1.1-0.1c0.8,0,1.7,0.1,2.5,0.3c0.9,0.2,1.7,0.5,2.4,1V80
			c-0.8-0.3-1.7-0.4-2.6-0.6s-1.7-0.2-2.6-0.2c-1.1,0-2.1,0.1-3.1,0.3c-1,0.2-1.9,0.6-2.7,1.1s-1.4,1.1-1.9,1.9s-0.7,1.7-0.7,2.8
			c0,0.8,0.1,1.5,0.3,2c0.2,0.6,0.5,1.1,0.9,1.5c0.4,0.4,0.9,0.8,1.5,1.2c0.6,0.3,1.3,0.6,2,0.9c0.5,0.2,1,0.4,1.5,0.5
			c0.5,0.2,1,0.3,1.4,0.5s0.8,0.4,1.1,0.7s0.4,0.6,0.4,0.9c0,0.6-0.3,1-0.9,1.3c-0.6,0.3-1.4,0.4-2.5,0.4c-0.9,0-1.8-0.1-2.7-0.4
			s-1.9-0.7-2.9-1.3v4.8c1.8,0.6,3.8,1,5.9,1c1.2,0,2.3-0.1,3.3-0.3c1.1-0.2,2-0.6,2.8-1.1s1.5-1.2,2-2s0.7-1.8,0.7-2.9
			C105.9,92.2,105.7,91.5,105.5,90.9z"/>
		<path class="st2" d="M73.9,87.4c1.5-2.8,2.3-6.2,2.3-10.2c0-2.9-0.4-5.5-1.3-7.7c-0.9-2.2-2.1-4.2-3.8-5.9c-1.7-1.7-3.6-3.3-6-4.6
			c-2.3-1.4-4.9-2.7-7.8-3.9c-2.1-0.9-4-1.7-5.7-2.6c-1.7-0.8-3.1-1.7-4.3-2.5c-1.2-0.9-2.1-1.8-2.7-2.7c-0.6-1-1-2.1-1-3.3
			c0-1.1,0.3-2.1,0.9-3c0.6-0.9,1.4-1.7,2.4-2.3c1-0.6,2.3-1.1,3.9-1.5c1.5-0.4,3.2-0.5,5.1-0.5c1.4,0,2.8,0.1,4.3,0.3
			c1.5,0.2,3,0.5,4.5,0.9c1.5,0.4,3,1,4.4,1.6c1.4,0.6,2.8,1.4,4,2.2V26.4c-2.5-0.9-5.2-1.6-8.1-2.1c-2.9-0.5-6.3-0.7-10.1-0.7
			c-3.9,0-7.5,0.4-11,1.2c-3.4,0.8-6.5,2.1-9.1,3.9c-2.6,1.8-4.7,4-6.2,6.7c-1.5,2.7-2.3,6-2.3,9.8c0,4.8,1.4,9,4.2,12.4
			c2.8,3.4,7,6.3,12.7,8.7c2.2,0.9,4.3,1.8,6.2,2.7c1.9,0.9,3.6,1.8,5,2.7c1.4,0.9,2.5,2,3.3,3.1c0.8,1.1,1.2,2.4,1.2,3.8
			c0,1-0.3,2-0.8,2.9c-0.5,0.9-1.3,1.7-2.3,2.3c-1,0.7-2.3,1.2-3.9,1.5c-1.5,0.4-3.3,0.6-5.4,0.6c-3.5,0-7-0.6-10.5-1.9
			c-3.4-1.2-6.6-3.1-9.6-5.6v16.2c2.6,1.4,5.8,2.4,9.4,3c3.6,0.7,7.4,1,11.4,1c3.9,0,7.6-0.4,11.1-1.1c3.5-0.7,6.6-2,9.2-3.7
			C70.3,92.4,72.4,90.1,73.9,87.4z"/>
	</g>
</g>
</svg>
