<?xml version="1.0" encoding="utf-8"?>
<!-- Generator: Adobe Illustrator 28.0.0, SVG Export Plug-In . SVG Version: 6.00 Build 0)  -->
<svg version="1.1" id="Layer_1" xmlns="http://www.w3.org/2000/svg" xmlns:xlink="http://www.w3.org/1999/xlink" x="0px" y="0px"
	 viewBox="0 0 500 500" style="enable-background:new 0 0 500 500;" xml:space="preserve">
<style type="text/css">
	.st0{fill:#19B394;}
	.st1{fill:#FFFFFF;}
	.st2{fill:#FF9814;}
</style>
<rect class="st0" width="500" height="500"/>
<g>
	<path class="st1" d="M444,182.6H55.1v120.9h345.1l43.8,38.3V182.6L444,182.6z"/>
	<path class="st0" d="M144.1,230.2c-0.3-0.3-0.8-0.7-1.6-1.2c-0.8-0.5-1.7-1-2.9-1.5c-1.1-0.5-2.3-0.9-3.7-1.2
		c-1.3-0.3-2.7-0.5-4-0.5c-2.4,0-4.2,0.4-5.4,1.3c-1.2,0.9-1.8,2.1-1.8,3.8c0,0.9,0.2,1.7,0.7,2.3s1.1,1.2,1.9,1.6
		c0.9,0.5,1.9,0.9,3.2,1.3c1.3,0.4,2.8,0.8,4.5,1.2c2.2,0.6,4.2,1.2,6,1.9c1.8,0.7,3.3,1.5,4.6,2.6c1.3,1,2.2,2.2,2.9,3.7
		c0.7,1.4,1,3.2,1,5.3c0,2.4-0.5,4.5-1.4,6.2c-0.9,1.7-2.1,3.1-3.7,4.2c-1.6,1.1-3.3,1.8-5.4,2.3c-2,0.5-4.1,0.7-6.3,0.7
		c-3.4,0-6.8-0.5-10.1-1.5c-3.3-1-6.3-2.5-8.9-4.3l3.9-7.6c0.4,0.4,1.1,0.9,2.1,1.5c1,0.6,2.2,1.2,3.5,1.9c1.4,0.6,2.9,1.1,4.5,1.6
		c1.7,0.4,3.4,0.6,5.1,0.6c4.8,0,7.3-1.6,7.3-4.7c0-1-0.3-1.8-0.8-2.5c-0.6-0.7-1.3-1.3-2.4-1.8c-1-0.5-2.3-1-3.7-1.4
		c-1.4-0.4-3.1-0.9-4.8-1.4c-2.2-0.6-4-1.2-5.6-1.9c-1.6-0.7-2.9-1.5-4-2.5c-1.1-1-1.9-2.1-2.4-3.3c-0.5-1.3-0.8-2.8-0.8-4.5
		c0-2.3,0.4-4.3,1.3-6.1c0.9-1.8,2-3.3,3.5-4.5c1.5-1.2,3.3-2.1,5.3-2.7c2-0.6,4.1-0.9,6.4-0.9c3.2,0,6.1,0.5,8.8,1.5
		c2.7,1,5,2.2,7,3.5L144.1,230.2z M165.6,264.2c-3.4,0-6.1-1.1-7.8-3.3c-1.8-2.2-2.7-5.5-2.7-9.8v-20.9h8.5v19.1
		c0,5.1,1.8,7.7,5.5,7.7c1.7,0,3.3-0.5,4.8-1.5c1.6-1,2.8-2.5,3.8-4.6v-20.7h8.5v23.6c0,0.9,0.2,1.5,0.5,1.9
		c0.3,0.4,0.8,0.6,1.6,0.6v7.3c-0.9,0.2-1.6,0.3-2.1,0.3c-0.6,0-1.1,0.1-1.6,0.1c-1.5,0-2.8-0.4-3.7-1.1c-1-0.7-1.5-1.7-1.7-2.9
		l-0.2-2.7c-1.5,2.3-3.4,4-5.7,5.2C170.9,263.7,168.4,264.2,165.6,264.2z M214.7,237.6c-2.6,0-4.9,0.5-7,1.5c-2,1-3.5,2.4-4.4,4.3
		v20.2h-8.5v-33.4h7.8v7.1c0.6-1.1,1.3-2.2,2.1-3.1c0.8-0.9,1.7-1.7,2.6-2.4c0.9-0.7,1.9-1.2,2.8-1.6c1-0.4,1.9-0.5,2.8-0.5
		c0.5,0,0.8,0,1.1,0s0.5,0,0.7,0.1V237.6z M228.4,263.6l-12.3-33.4h8.8l8.5,26.5l8.5-26.5h8l-12.3,33.4H228.4z M268.8,264.2
		c-2.7,0-5.1-0.5-7.3-1.4c-2.2-0.9-4-2.2-5.5-3.7c-1.5-1.6-2.7-3.4-3.5-5.5c-0.8-2.1-1.2-4.3-1.2-6.6c0-2.4,0.4-4.6,1.2-6.7
		c0.8-2.1,2-4,3.5-5.5c1.5-1.6,3.4-2.9,5.6-3.8c2.2-0.9,4.6-1.4,7.4-1.4c2.7,0,5.2,0.5,7.3,1.4c2.1,0.9,4,2.2,5.5,3.8
		c1.5,1.6,2.7,3.4,3.4,5.5c0.8,2.1,1.2,4.3,1.2,6.5c0,0.6,0,1.1,0,1.6c0,0.5-0.1,0.9-0.2,1.3h-25.8c0.1,1.3,0.4,2.5,1,3.5
		c0.5,1,1.2,1.9,2,2.6c0.8,0.7,1.7,1.3,2.7,1.7c1,0.4,2.1,0.6,3.2,0.6c1.7,0,3.3-0.4,4.8-1.2c1.5-0.8,2.5-1.9,3.1-3.3l7.3,2
		c-1.2,2.6-3.2,4.6-5.9,6.3C275.8,263.4,272.6,264.2,268.8,264.2z M277.5,244.1c-0.2-2.5-1.1-4.5-2.8-6c-1.6-1.5-3.6-2.3-6-2.3
		c-1.1,0-2.2,0.2-3.2,0.6c-1,0.4-1.9,1-2.6,1.7c-0.8,0.7-1.4,1.6-1.9,2.6c-0.5,1-0.8,2.1-0.9,3.4H277.5z M291.3,270.1
		c0.7,0.2,1.4,0.4,2.1,0.5c0.7,0.1,1.3,0.2,1.7,0.2c0.6,0,1.1-0.1,1.5-0.3c0.5-0.2,0.9-0.6,1.3-1.1c0.4-0.5,0.8-1.3,1.1-2.2
		c0.4-0.9,0.8-2.1,1.2-3.5l-13.2-33.4h8.8l9.1,26l8-26h8l-14,40.1c-0.8,2.3-2.2,4.3-4.1,5.7c-2,1.5-4.4,2.2-7.3,2.2
		c-0.7,0-1.4-0.1-2.1-0.2c-0.7-0.1-1.4-0.3-2.2-0.5V270.1z"/>
	<path class="st2" d="M319.3,254.4c0.6,0.4,1.6,0.9,3,1.4c1.4,0.5,3,0.8,4.8,0.8c1.8,0,3.2-0.3,4.3-0.9c1.1-0.6,1.9-1.6,2.4-2.8
		c0.6-1.3,0.9-2.9,1.1-4.8c0.2-1.9,0.3-4.1,0.3-6.7v-23h8.8v23c0,3.4-0.2,6.6-0.5,9.4c-0.4,2.8-1.1,5.2-2.3,7.2
		c-1.2,2-2.9,3.6-5.1,4.7c-2.2,1.1-5.2,1.7-8.9,1.7c-3.8,0-7.1-0.9-9.8-2.8L319.3,254.4z M379.9,230.2c-0.3-0.3-0.8-0.7-1.6-1.2
		c-0.8-0.5-1.7-1-2.9-1.5c-1.1-0.5-2.4-0.9-3.7-1.2c-1.3-0.3-2.7-0.5-4-0.5c-2.4,0-4.2,0.4-5.4,1.3c-1.2,0.9-1.8,2.1-1.8,3.8
		c0,0.9,0.2,1.7,0.7,2.3c0.4,0.6,1.1,1.2,1.9,1.6c0.8,0.5,1.9,0.9,3.2,1.3c1.3,0.4,2.8,0.8,4.5,1.2c2.2,0.6,4.2,1.2,6,1.9
		c1.8,0.7,3.3,1.5,4.6,2.6c1.3,1,2.2,2.2,2.9,3.7c0.7,1.4,1,3.2,1,5.3c0,2.4-0.5,4.5-1.4,6.2c-0.9,1.7-2.1,3.1-3.7,4.2
		c-1.6,1.1-3.3,1.8-5.4,2.3c-2,0.5-4.1,0.7-6.3,0.7c-3.4,0-6.8-0.5-10.1-1.5c-3.3-1-6.3-2.5-8.9-4.3l3.9-7.6
		c0.4,0.4,1.1,0.9,2.1,1.5c1,0.6,2.2,1.2,3.5,1.9c1.4,0.6,2.9,1.1,4.5,1.6c1.7,0.4,3.4,0.6,5.1,0.6c4.8,0,7.3-1.6,7.3-4.7
		c0-1-0.3-1.8-0.8-2.5s-1.3-1.3-2.4-1.8c-1-0.5-2.3-1-3.7-1.4c-1.4-0.4-3.1-0.9-4.8-1.4c-2.2-0.6-4.1-1.2-5.6-1.9
		c-1.6-0.7-2.9-1.5-4-2.5c-1.1-1-1.9-2.1-2.4-3.3c-0.5-1.3-0.8-2.8-0.8-4.5c0-2.3,0.4-4.3,1.3-6.1c0.8-1.8,2-3.3,3.5-4.5
		c1.5-1.2,3.3-2.1,5.3-2.7c2-0.6,4.1-0.9,6.4-0.9c3.2,0,6.1,0.5,8.8,1.5c2.7,1,5,2.2,7,3.5L379.9,230.2z"/>
</g>
</svg>
